# xmcd CD database file
#
# Track frame offsets:
#	150
#	39210
#	69665
#	103610
#	141115
#	166705
#	240982
#	249247
#	272700
#	289465
#
# Disc length: 4034 seconds
#
# Revision: 0
# Processed by: cddbd v1.5.1PL2 Copyright (c) Steve Scherf et al.
# Submitted via: CDex 1.51
#
DISCID=840fc00a
DTITLE=CLUB db STATION - メモリサイト75 Vol.3
DYEAR=1900
DGENRE=Salsa
TTITLE0=第12話
TTITLE1=第13話
TTITLE2=第14話
TTITLE3=第15話
TTITLE4=第16話
TTITLE5=最終話
TTITLE6=ハッピートーク75
TTITLE7=ラストシーン/桑島法子
TTITLE8=ミニドラマ
TTITLE9=トークサイト01
EXTD=
EXTT0=
EXTT1=
EXTT2=
EXTT3=
EXTT4=
EXTT5=
EXTT6=
EXTT7=
EXTT8=
EXTT9=
PLAYORDER=
